<?xml version="1.0" standalone="no"?>
<!DOCTYPE svg PUBLIC "-//W3C//DTD SVG 20010904//EN"
 "http://www.w3.org/TR/2001/REC-SVG-20010904/DTD/svg10.dtd">
<svg version="1.0" xmlns="http://www.w3.org/2000/svg"
 width="512.000000pt" height="512.000000pt" viewBox="0 0 512.000000 512.000000"
 preserveAspectRatio="xMidYMid meet">
<metadata>
Created by potrace 1.11, written by Peter Selinger 2001-2013
</metadata>
<g transform="translate(0.000000,512.000000) scale(0.100000,-0.100000)"
fill="#000000" stroke="none">
<path d="M255 4736 c-92 -29 -178 -107 -222 -201 l-28 -60 0 -1915 0 -1915 29
-62 c33 -73 107 -147 181 -184 l50 -24 2295 0 2295 0 50 24 c74 37 148 111
181 184 l29 62 0 1915 0 1915 -29 62 c-33 73 -107 147 -181 184 l-50 24 -2280
2 c-1812 1 -2288 -1 -2320 -11z m452 -271 c48 -20 71 -41 94 -87 41 -81 11
-188 -65 -233 -92 -54 -212 -21 -256 70 -74 152 74 314 227 250z m550 0 c50
-21 72 -42 94 -90 33 -71 22 -144 -29 -198 -40 -42 -75 -57 -134 -57 -102 0
-177 73 -178 172 0 83 32 136 105 169 49 23 94 24 142 4z m3493 -2180 l0
-1555 -2190 0 -2190 0 0 1555 0 1555 2190 0 2190 0 0 -1555z"/>
<path d="M882 3489 l3 -131 447 -191 c246 -105 445 -193 443 -197 -2 -3 -204
-92 -449 -196 l-446 -189 0 -127 c0 -71 3 -128 8 -128 4 1 266 119 582 264
l575 264 3 113 2 114 -557 254 c-307 140 -571 261 -586 268 l-28 14 3 -132z"/>
<path d="M2607 3093 c-4 -3 -7 -60 -7 -125 l0 -118 320 0 320 0 0 125 0 125
-313 0 c-173 0 -317 -3 -320 -7z"/>
</g>
</svg>
